
<svg width="65px" height="65px" viewBox="0 0 65 65" version="1.1" xmlns="http://www.w3.org/2000/svg" xmlns:xlink="http://www.w3.org/1999/xlink">
    <g id="Desktop" stroke="none" stroke-width="1" fill="none" fill-rule="evenodd">
        <g id="205_ProductDetails" transform="translate(-762.000000, -736.000000)" fill="#F3007E" fill-rule="nonzero">
            <g id="Group" transform="translate(135.000000, 622.000000)">
                <g id="Bitmap" transform="translate(600.000000, 87.000000)">
                    <g id="985729" transform="translate(27.000000, 27.000000)">
                        <path d="M40.1855344,32.0001003 C41.896252,30.6922306 43,28.6521303 43,26.3625063 C43,22.8933333 40.4686644,19.9952882 37.1258934,19.3545865 L37.1258934,17.5037594 C37.1258934,16.6732832 36.4406677,16 35.5954607,16 C34.7502538,16 34.0650281,16.6732832 34.0650281,17.5037594 L34.0650281,19.2213534 L32.8634344,19.2213534 L28.9296103,19.2213534 L28.9296103,17.5037594 C28.9296103,16.6732832 28.2443846,16 27.3991776,16 C26.5539707,16 25.868745,16.6732832 25.868745,17.5037594 L25.868745,19.2213534 L24.5304327,19.2213534 C23.6852257,19.2213534 23,19.8946366 23,20.7251128 C23,21.555589 23.6852257,22.2288722 24.5304327,22.2288722 L25.868745,22.2288722 L25.868745,32 L25.868745,41.7711278 L24.5304327,41.7711278 C23.6852257,41.7711278 23,42.444411 23,43.2748872 C23,44.1053634 23.6852257,44.7786466 24.5304327,44.7786466 L25.868745,44.7786466 L25.868745,46.4962406 C25.868745,47.3267168 26.5539707,48 27.3991776,48 C28.2443846,48 28.9296103,47.3267168 28.9296103,46.4962406 L28.9296103,44.7786466 L32.8634344,44.7786466 L34.0650281,44.7786466 L34.0650281,46.4962406 C34.0650281,47.3267168 34.7502538,48 35.5954607,48 C36.4406677,48 37.1258934,47.3267168 37.1258934,46.4962406 L37.1258934,44.6455138 C40.4687664,44.0047118 43,41.1065664 43,37.6373935 C43,35.3476692 41.896252,33.3077694 40.1855344,32.0001003 Z M28.9295083,30.4961404 L28.9295083,22.2288722 L32.8633324,22.2288722 L35.7320774,22.2288722 C38.0518051,22.2288722 39.9390327,24.083208 39.9390327,26.362406 C39.9390327,28.6417043 38.0518051,30.4961404 35.7320774,30.4961404 L28.9295083,30.4961404 L28.9295083,30.4961404 Z M35.7321794,41.7710276 L32.8634344,41.7710276 L28.9296103,41.7710276 L28.9296103,33.5037594 L35.7321794,33.5037594 C38.0519072,33.5037594 39.9391347,35.3580952 39.9391347,37.6372932 C39.9391347,39.9165915 38.0519072,41.7710276 35.7321794,41.7710276 Z" id="Shape"></path>
                        <path d="M55.4809277,9.51894531 C49.3424902,3.38063477 41.1810547,0 32.5,0 C23.8189453,0 15.6573828,3.38063477 9.51894531,9.51894531 C3.38063477,15.6575098 0,23.8189453 0,32.5 C0,41.1811816 3.38063477,49.3426172 9.51894531,55.4810547 C15.6573828,61.6193652 23.8189453,65 32.5,65 C41.1810547,65 49.3424902,61.6193652 55.4809277,55.4810547 C61.6193652,49.3426172 65,41.1811816 65,32.5 C65,23.8189453 61.6193652,15.6575098 55.4809277,9.51894531 Z M32.5,62 C16.2336217,62 3,48.7663783 3,32.5 C3,16.2336217 16.2336217,3 32.5,3 C48.7663783,3 62,16.2336217 62,32.5 C62,48.7663783 48.7663783,62 32.5,62 Z" id="Shape"></path>
                    </g>
                </g>
            </g>
        </g>
    </g>
</svg>