
<svg width="55px" height="65px" viewBox="0 0 55 65" version="1.1" xmlns="http://www.w3.org/2000/svg" xmlns:xlink="http://www.w3.org/1999/xlink">
    <g id="Desktop" stroke="none" stroke-width="1" fill="none" fill-rule="evenodd">
        <g id="205_ProductDetails" transform="translate(-467.000000, -737.000000)" fill="#F3007E" fill-rule="nonzero">
            <g id="Group" transform="translate(135.000000, 622.000000)">
                <g id="Bitmap" transform="translate(300.000000, 87.000000)">
                    <g id="102649" transform="translate(32.000000, 28.000000)">
                        <path d="M54.6736464,16.6796047 C54.640221,14.9306512 54.6083149,13.2784419 54.6083149,11.6800465 C54.6083149,10.427814 53.588232,9.41260465 52.3293094,9.41260465 C42.5827624,9.41260465 35.1620166,6.62576744 28.9764917,0.642139535 C28.0916298,-0.214046512 26.6835083,-0.213744186 25.7989503,0.642139535 C19.6140331,6.62576744 12.1945028,9.41260465 2.44856354,9.41260465 C1.18994475,9.41260465 0.169558012,10.427814 0.169558012,11.6800465 C0.169558012,13.2787442 0.137955802,14.9315581 0.10422652,16.680814 C-0.208149171,32.956814 -0.635994474,55.2475814 26.6412707,64.6544419 C26.8831492,64.7378837 27.1353591,64.7796047 27.3875691,64.7796047 C27.639779,64.7796047 27.8922928,64.7378837 28.1338674,64.6544419 C55.4132597,55.2472791 54.9860221,32.955907 54.6736464,16.6796047 Z M27.5327475,61.6950286 C2.70366309,52.6788713 3.07906483,32.927919 3.41221776,15.4807341 C3.43221338,14.4336258 3.45156399,13.418756 3.46510941,12.4238741 C13.1533125,12.0150892 20.9006499,9.0804133 27.5327475,3.30519811 C34.16549,9.0804133 41.9141174,12.0154116 51.6029656,12.4238741 C51.616511,13.4184336 51.6358616,14.4326586 51.6558572,15.4791222 C51.9886877,32.9269519 52.3637669,52.6785489 27.5327475,61.6950286 Z" id="Shape"></path>
                        <path d="M33.6037256,25.966913 L24.8919649,34.8904385 L21.1744433,31.0823412 C20.4695413,30.3605111 19.3266326,30.3605111 18.6219713,31.0823412 C17.9170693,31.8046643 17.9170693,32.9751729 18.6219713,33.6972495 L23.6157289,38.8126777 C23.9680596,39.1735927 24.4301326,39.3540502 24.8919649,39.3540502 C25.3537973,39.3540502 25.8158703,39.1735927 26.1682009,38.8126777 L36.155957,28.5818213 C36.8610996,27.8597447 36.8610996,26.6889896 36.1561976,25.9671595 C35.4515363,25.2450829 34.3086276,25.2448364 33.6037256,25.966913 Z" id="Path"></path>
                    </g>
                </g>
            </g>
        </g>
    </g>
</svg>