
<svg width="59px" height="59px" viewBox="0 0 59 59" version="1.1" xmlns="http://www.w3.org/2000/svg" xmlns:xlink="http://www.w3.org/1999/xlink">
    <g id="Desktop" stroke="none" stroke-width="1" fill="none" fill-rule="evenodd">
        <g id="205_ProductDetails" transform="translate(-1066.000000, -740.000000)" fill="#F3007E" fill-rule="nonzero" stroke="#ED028C" stroke-width="0.5">
            <g id="Group" transform="translate(135.000000, 622.000000)">
                <g id="1211874" transform="translate(932.000000, 119.000000)">
                    <path d="M52.25,17.1 L41.8,17.1 L41.8,12.35 C41.8,12.329126 41.789331,12.3110352 41.7874756,12.2901612 C41.7828369,12.2071289 41.7666016,12.1245605 41.7392334,12.046167 C41.7285645,12.0155518 41.7211426,11.9863281 41.7076904,11.9566406 C41.6617676,11.8531982 41.5972901,11.7590333 41.5179688,11.6783203 L30.1179688,0.278320313 C30.036792,0.198535156 29.9421631,0.134521425 29.8387208,0.088134825 C29.8099609,0.0760742188 29.7825927,0.0681885063 29.7529052,0.0579833688 C29.6721924,0.0301513375 29.5877685,0.0134521188 29.502417,0.00834960938 C29.4871094,0.0106689513 29.4699463,0 29.45,0 L4.75,0 C2.12775882,0.00324707625 0.00324707625,2.12775882 0,4.75 L0,48.45 C0.00324707625,51.0722412 2.12775882,53.1967529 4.75,53.2 L24.7950927,53.2 C25.2496826,55.4103271 27.19375,56.9972167 29.45,57 L52.25,57 C54.8722412,56.9967529 56.9967529,54.8722412 57,52.25 L57,21.85 C56.9967529,19.2277588 54.8722412,17.1032471 52.25,17.1 Z M38.5566406,11.4 L31.35,11.4 C30.8253662,11.4 30.4,10.9746338 30.4,10.45 L30.4,3.24335937 L38.5566406,11.4 Z M1.9,48.45 L1.9,4.75 C1.9,3.17609866 3.17609866,1.9 4.75,1.9 L28.5,1.9 L28.5,10.45 C28.5,12.0239013 29.7760987,13.3 31.35,13.3 L39.9,13.3 L39.9,17.1 L29.45,17.1 C26.8277588,17.1032471 24.7032471,19.2277588 24.7,21.85 L24.7,51.3 L4.75,51.3 C3.17609866,51.3 1.9,50.0239013 1.9,48.45 Z M55.1,52.25 C55.1,53.8239013 53.8239013,55.1 52.25,55.1 L29.45,55.1 C27.8760987,55.1 26.6,53.8239013 26.6,52.25 L26.6,21.85 C26.6,20.2760987 27.8760987,19 29.45,19 L52.25,19 C53.8239013,19 55.1,20.2760987 55.1,21.85 L55.1,52.25 Z" id="Shape"></path>
                    <path d="M48.45,20.9 L33.25,20.9 C30.6277588,20.9032471 28.5032471,23.0277588 28.5,25.65 L28.5,29.45 C28.5032471,32.0722412 30.6277588,34.1967529 33.25,34.2 L48.45,34.2 C51.0722412,34.1967529 53.1967529,32.0722412 53.2,29.45 L53.2,25.65 C53.1967529,23.0277588 51.0722412,20.9032471 48.45,20.9 Z M51.3,29.45 C51.3,31.0239013 50.0239013,32.3 48.45,32.3 L33.25,32.3 C31.6760987,32.3 30.4,31.0239013 30.4,29.45 L30.4,25.65 C30.4,24.0760987 31.6760987,22.8 33.25,22.8 L48.45,22.8 C50.0239013,22.8 51.3,24.0760987 51.3,25.65 L51.3,29.45 Z" id="Shape"></path>
                    <g id="Group-3" transform="translate(32.753731, 36.100000)">
                        <path d="M3.8,-4.22772928e-13 C1.70146484,-4.22772928e-13 -4.26325641e-13,1.70146484 -4.26325641e-13,3.8 C-4.26325641e-13,5.89853516 1.70146484,7.6 3.8,7.6 C5.89853516,7.6 7.6,5.89853516 7.6,3.8 C7.6,1.70146484 5.89853516,-4.22772928e-13 3.8,-4.22772928e-13 Z M3.8,5.7 C2.75073236,5.7 1.9,4.84926764 1.9,3.8 C1.9,2.75073236 2.75073236,1.9 3.8,1.9 C4.84926764,1.9 5.7,2.75073236 5.7,3.8 C5.7,4.84926764 4.84926764,5.7 3.8,5.7 Z" id="Shape"></path>
                        <path d="M12.35,-4.22772928e-13 C10.2514648,-4.22772928e-13 8.55,1.70146484 8.55,3.8 C8.55,5.89853516 10.2514648,7.6 12.35,7.6 C14.4485352,7.6 16.15,5.89853516 16.15,3.8 C16.15,1.70146484 14.4485352,-4.22772928e-13 12.35,-4.22772928e-13 Z M12.35,5.7 C11.3007324,5.7 10.45,4.84926764 10.45,3.8 C10.45,2.75073236 11.3007324,1.9 12.35,1.9 C13.3992676,1.9 14.25,2.75073236 14.25,3.8 C14.25,4.84926764 13.3992676,5.7 12.35,5.7 Z" id="Shape"></path>
                        <path d="M3.8,8.64925373 C1.70146484,8.64925373 -4.26325641e-13,10.3507186 -4.26325641e-13,12.4492537 C-4.26325641e-13,14.5477889 1.70146484,16.2492537 3.8,16.2492537 C5.89853516,16.2492537 7.6,14.5477889 7.6,12.4492537 C7.6,10.3507186 5.89853516,8.64925373 3.8,8.64925373 Z M3.8,14.3492537 C2.75073236,14.3492537 1.9,13.4985214 1.9,12.4492537 C1.9,11.3999861 2.75073236,10.5492537 3.8,10.5492537 C4.84926764,10.5492537 5.7,11.3999861 5.7,12.4492537 C5.7,13.4985214 4.84926764,14.3492537 3.8,14.3492537 Z" id="Shape"></path>
                        <path d="M12.35,8.64925373 C10.2514648,8.64925373 8.55,10.3507186 8.55,12.4492537 C8.55,14.5477889 10.2514648,16.2492537 12.35,16.2492537 C14.4485352,16.2492537 16.15,14.5477889 16.15,12.4492537 C16.15,10.3507186 14.4485352,8.64925373 12.35,8.64925373 Z M12.35,14.3492537 C11.3007324,14.3492537 10.45,13.4985214 10.45,12.4492537 C10.45,11.3999861 11.3007324,10.5492537 12.35,10.5492537 C13.3992676,10.5492537 14.25,11.3999861 14.25,12.4492537 C14.25,13.4985214 13.3992676,14.3492537 12.35,14.3492537 Z" id="Shape"></path>
                    </g>
                    <path d="M9.77832031,16.8216797 C10.1494141,17.1923096 10.7505859,17.1923096 11.1216797,16.8216797 L19.6716797,8.27167969 C20.0316406,7.89873047 20.0265381,7.3063721 19.660083,6.93991696 C19.2936279,6.57346194 18.7012695,6.56835938 18.3283203,6.92832031 L9.77832031,15.4783203 C9.4076904,15.8494141 9.4076904,16.4505859 9.77832031,16.8216797 Z" id="Path"></path>
                    <path d="M15.2,15.2 C15.2,16.7739013 16.4760987,18.05 18.05,18.05 C19.6239013,18.05 20.9,16.7739013 20.9,15.2 C20.9,13.6260987 19.6239013,12.35 18.05,12.35 C16.4760987,12.35 15.2,13.6260987 15.2,15.2 Z M19,15.2 C19,15.7246338 18.5746338,16.15 18.05,16.15 C17.5253662,16.15 17.1,15.7246338 17.1,15.2 C17.1,14.6753662 17.5253662,14.25 18.05,14.25 C18.5746338,14.25 19,14.6753662 19,15.2 Z" id="Shape"></path>
                    <path d="M11.4,11.4 C12.9739013,11.4 14.25,10.1239013 14.25,8.55 C14.25,6.97609866 12.9739013,5.7 11.4,5.7 C9.82609866,5.7 8.55,6.97609866 8.55,8.55 C8.55,10.1239013 9.82609866,11.4 11.4,11.4 Z M11.4,7.6 C11.9246338,7.6 12.35,8.02536618 12.35,8.55 C12.35,9.07463382 11.9246338,9.5 11.4,9.5 C10.8753662,9.5 10.45,9.07463382 10.45,8.55 C10.45,8.02536618 10.8753662,7.6 11.4,7.6 Z" id="Shape"></path>
                    <path d="M6.65,25.65 L18.05,25.65 C18.5746338,25.65 19,25.2246338 19,24.7 C19,24.1753662 18.5746338,23.75 18.05,23.75 L6.65,23.75 C6.12536618,23.75 5.7,24.1753662 5.7,24.7 C5.7,25.2246338 6.12536618,25.65 6.65,25.65 Z" id="Path"></path>
                    <path d="M19.95,27.55 L6.65,27.55 C6.12536618,27.55 5.7,27.9753662 5.7,28.5 C5.7,29.0246338 6.12536618,29.45 6.65,29.45 L19.95,29.45 C20.4746338,29.45 20.9,29.0246338 20.9,28.5 C20.9,27.9753662 20.4746338,27.55 19.95,27.55 Z" id="Path"></path>
                    <path d="M10.45,31.35 L6.65,31.35 C6.12536618,31.35 5.7,31.7753662 5.7,32.3 C5.7,32.8246338 6.12536618,33.25 6.65,33.25 L10.45,33.25 C10.9746338,33.25 11.4,32.8246338 11.4,32.3 C11.4,31.7753662 10.9746338,31.35 10.45,31.35 Z" id="Path"></path>
                </g>
            </g>
        </g>
    </g>
</svg>