<svg xmlns="http://www.w3.org/2000/svg" width="187" height="43" viewBox="0 0 187 43">
    <path fill="#FFF" fill-rule="evenodd" d="M39.444 36.516V34.8c.617-.234.973-.703.993-1.226v-9.55c-.02-.521-.376-.99-.993-1.224v-1.717h7.701c1.38 0 2.925-.017 4.121.63 1.318.703 1.751 2 1.751 3.278 0 1.765-.804 2.97-2.782 3.458v.035c2.266.252 3.048 1.837 3.048 3.637 0 1.262-.328 2.667-1.482 3.476-1.257.9-2.863.919-4.408.919h-7.949zm5.479-9.162h1.628c1.076 0 1.757-.477 1.757-1.496 0-1.003-.737-1.55-1.757-1.55h-1.628v3.046zm0 6.028v-3.564h1.774c1.222 0 1.792.711 1.792 1.795 0 1.118-.702 1.769-1.792 1.769h-1.773zm26.308-7.507c1.341-.79 2.694-.961 3.357-.938 1.01.035 1.75.326 2.243.757.887.737.99 1.565.99 2.54v5.141c0 .56.23 1.189.868 1.495v1.646h-4.878c-.289-1.153-.269-2.36-.269-3.53v-3.95c0-.073.062-.596-.144-1.01-.33-.43-1.157-.755-1.96-.43v5.908c0 .556-.062 1.187.597 1.494v1.518H66.27v-1.518c.64-.324.89-.847.89-1.423v-5.098c0-.611-.273-1.008-.89-1.405v-1.9h4.961v.703zm95.535 0c1.34-.79 2.692-.961 3.355-.938 1.009.035 1.749.326 2.243.757.887.737.989 1.565.989 2.54v5.141c0 .56.231 1.189.869 1.495v1.646h-4.878c-.29-1.153-.268-2.36-.268-3.53v-3.95c0-.073.063-.596-.145-1.01-.33-.43-1.156-.755-1.961-.43v5.908c0 .556-.062 1.187.598 1.494v1.518h-5.765v-1.518c.637-.324.89-.847.89-1.423v-5.098c0-.611-.273-1.008-.89-1.405v-1.9h4.963v.703zm-69.932 3.064l1.562-1.158c.552-.53.681-1.17.681-2.16v-.45h4.63v1.517c-.163.072-.616.236-.966.612l-2.656 2.333 2.656 3.816c.33.593.577 1.225 1.36 1.549v1.518H99.97l-3.094-4.934h-.042v1.922c0 .61.23 1.079.89 1.494v1.518h-5.766v-1.518c.619-.415.89-.812.89-1.424v-9.478c0-.612-.23-1.08-.89-1.495v-1.518h4.876v7.856zm82.899 0l1.563-1.158c.551-.53.68-1.17.68-2.16v-.45h4.63v1.517c-.164.072-.618.236-.968.612l-2.654 2.333 2.656 3.816c.33.593.576 1.225 1.36 1.549v1.518h-4.132l-3.093-4.934h-.042v1.922c0 .61.231 1.079.89 1.494v1.518h-5.765v-1.518c.618-.415.889-.812.889-1.424v-9.478c0-.612-.229-1.08-.889-1.495v-1.518h4.875v7.856zm-58.792 0l1.562-1.158c.551-.53.68-1.17.68-2.16v-.45h4.632v1.517c-.165.072-.619.236-.968.612l-2.656 2.333 2.656 3.816c.33.593.576 1.225 1.361 1.549v1.518h-4.132l-3.094-4.934h-.04v1.922c0 .61.23 1.079.89 1.494v1.518h-5.767v-1.518c.619-.415.89-.812.89-1.424v-9.478c0-.612-.23-1.08-.89-1.495v-1.518h4.876v7.856zm-59.948 6.713c-1.03.755-2.332 1.098-3.67 1.098-2.267 0-3.396-1.399-3.396-3.242 0-2.268 1.273-2.935 3.457-3.566l3.26-.88v-1.036c0-.558-.514-1.02-1.194-1.02-.783 0-1.326.462-1.326 1.02v1.106h-3.662v-2.47c1.67-1.045 3.48-1.725 5.497-1.725 1.3 0 2.382.18 3.475.9 1.361.937 1.38 2.125 1.361 3.44v4.19c0 .594-.063 1.116.597 1.531l.292 1.518h-4.398l-.293-.864zm-.28-4.28c-.867.305-2.67.685-2.67 1.687 0 .565.273 1.208 1.151 1.208.78 0 .963-.092 1.518-.43V31.37zm74.147 5.144V34.8c.618-.234.972-.703.993-1.226v-9.55c-.02-.521-.375-.99-.993-1.224v-1.717h7.702c1.38 0 2.925-.017 4.12.63 1.319.703 1.75 2 1.75 3.278 0 1.765-.802 2.97-2.78 3.458v.035c2.265.252 3.049 1.837 3.049 3.637 0 1.262-.33 2.667-1.483 3.476-1.257.9-2.865.919-4.408.919h-7.95zm5.48-9.162h1.629c1.073 0 1.754-.477 1.754-1.496 0-1.003-.735-1.55-1.754-1.55h-1.63v3.046zm0 6.028h1.774c1.09 0 1.791-.65 1.791-1.769 0-1.084-.57-1.795-1.791-1.795h-1.775v3.564zm16.005 2.27c-1.03.755-2.332 1.098-3.67 1.098-2.267 0-3.397-1.399-3.397-3.242 0-2.268 1.274-2.935 3.457-3.566l3.26-.88v-1.036c0-.558-.514-1.02-1.194-1.02-.784 0-1.324.462-1.324 1.02v1.106h-3.664v-2.47c1.67-1.045 3.478-1.725 5.498-1.725 1.299 0 2.383.18 3.475.9 1.359.937 1.38 2.125 1.359 3.44v4.19c0 .594-.061 1.116.598 1.531l.293 1.518h-4.399l-.292-.864zm-.282-4.28c-.866.305-2.669.685-2.669 1.687 0 .565.274 1.208 1.15 1.208.782 0 .965-.092 1.519-.43V31.37zM91.56 26.688c-.639.343-.889.828-.889 1.404v7.902c0 1.276.061 3.006-1.072 3.959-1.111.954-2.549 1.118-4.032 1.118-2.162 0-3.645-.735-5.54-1.655v-2.144h3.927c0 .125.021.832.144 1.084.145.252.664.431 1.056.431 1.07 0 1.237-1.499 1.237-2.147v-.72c-.864.576-2.08.829-3.008.829-3.21 0-3.999-2.066-3.999-4.551v-2.224c0-2.467.274-5.037 3.773-5.037 1.153 0 2.432.269 3.359.882v-.648h5.044v1.517zm-5.169 1.086c-.222-.136-.981-.222-1.26-.222-1.41 0-1.6 1.202-1.6 1.82v2.62c0 .581.269 2.008 1.618 2.008.242 0 1.02-.07 1.242-.188v-6.038zm29.3 4.418c0 1.262-.042 2.683-1.215 3.566-1.174.882-2.904.99-4.388.99-1.34 0-3.235-.09-4.367-.754-1.587-.92-1.587-2.308-1.587-3.802v-2.952c0-1.224.02-2.557 1.237-3.386 1.173-.81 2.76-.918 4.222-.918 1.32 0 3.297.091 4.43.667 1.566.827 1.669 2.197 1.669 3.637v2.952zm-7.18.936c0 .612.47 1.548 1.385 1.548 1.021 0 1.403-.936 1.403-1.548v-4.426c0-.611-.344-1.693-1.385-1.693-1.045 0-1.402 1.062-1.402 1.693v4.426zm-77.288-10.6c-.39-1.47-.951-2.559-1.86-4.222-.298-.47-.68-.998-1.023-1.557C24.393 10.9 16.603.693 15.893.036c0 0-.049-.036-.091-.036-.043 0-.091.036-.091.036C15 .693 7.209 10.901 3.263 16.75c-.343.56-.725 1.086-1.024 1.557C1.33 19.97.77 21.059.38 22.53c-.485 2.123-.507 4.763-.068 6.933.398 1.909 2.21 3.853 4.032 5.307l2.788 2.213s7.791 5.615 8.517 5.972c0 0 .071.045.152.045.08 0 .15-.045.15-.045.727-.357 8.517-5.972 8.517-5.972l2.789-2.213c1.822-1.454 3.634-3.398 4.03-5.307.44-2.17.419-4.81-.065-6.933M13.36 37.178c-.053.083-.18.056-.27.048-.458-.32-1.585-1.138-1.585-1.138-1.941-1.436-3.9-2.765-5.76-4.239-2.855-3.14-2.567-6.276-1.69-9.42.032-.206.127-.513.392-.568.807 1.185 2.514 3.627 2.514 3.627 1.66 2.388 3.678 4.539 5.585 6.78 1.31 1.202.778 3.22.814 4.91m2.444-6.226c-.04-.001-.101-.029-.16-.09-2.47-2.927-5.271-6.23-7.732-9.167-.443-.743-.897-1.458-.945-2.415-.033-.75-.08-1.44.538-2.375 0 0 .41-.594.53-.771 0 0 5.037-7.078 7.689-10.433 0 0 .035-.047.078-.047.038 0 .073.047.073.047 2.65 3.355 7.688 10.433 7.688 10.433.12.177.53.77.53.77.618.937.57 1.626.538 2.376-.05.957-.502 1.672-.945 2.415-2.461 2.936-5.262 6.24-7.732 9.166-.059.062-.117.089-.15.091m10.035.897c-1.858 1.474-3.819 2.803-5.76 4.24 0 0-1.127.816-1.584 1.137-.091.008-.217.035-.272-.048.036-1.69-.494-3.708.815-4.91 1.908-2.241 3.924-4.392 5.585-6.78 0 0 1.706-2.442 2.514-3.627.265.055.36.362.391.567.88 3.145 1.167 6.282-1.689 9.421"/>
</svg>
