
<svg width="56px" height="56px" viewBox="0 0 56 56" version="1.1" xmlns="http://www.w3.org/2000/svg" xmlns:xlink="http://www.w3.org/1999/xlink">
    <defs>
        <path d="M28.0252591,0 C16.1781337,0 6.34372593,2.59467774 4.38953552,6.00399938 L4.38953552,6.00399938 C1.81002882,9.67789571 0,18.1473619 0,28.0159975 L0,28.0159975 C0,37.701892 1.74534093,46.0458391 4.24968646,49.820643 L4.24968646,49.820643 C5.96237541,53.3173358 15.934168,56 27.9765891,56 L27.9765891,56 C39.8169377,56 49.655658,53.4059375 51.6104645,49.99477 L51.6104645,49.99477 C54.1918194,46.3245655 56,37.8520228 56,27.9870789 L56,27.9870789 C56,18.2987233 54.2571234,9.95723735 51.7478492,6.1805876 L51.7478492,6.1805876 C50.0382407,2.68451008 40.0682963,0 28.0252591,0 Z" id="path-1"></path>
    </defs>
    <g id="Desktop" stroke="none" stroke-width="1" fill="none" fill-rule="evenodd">
        <g id="205_ProductDetails" transform="translate(-1349.000000, -1491.000000)">
            <g id="Button/Square" transform="translate(1349.000000, 1491.000000)">
                <mask id="mask-2" fill="white">
                    <use xlink:href="#path-1"></use>
                </mask>
                <use id="Background" fill="#212B36" fill-rule="evenodd" xlink:href="#path-1"></use>
                <g id="Icon/Arrow/Right" mask="url(#mask-2)" fill="#FFFFFF" fill-rule="evenodd">
                    <g transform="translate(16.000000, 16.000000)" id="Arrow">
                        <path d="M9.41421356,12 L16.7071068,19.2928932 C17.0976311,19.6834175 17.0976311,20.3165825 16.7071068,20.7071068 C16.3165825,21.0976311 15.6834175,21.0976311 15.2928932,20.7071068 L7.29289322,12.7071068 C6.90236893,12.3165825 6.90236893,11.6834175 7.29289322,11.2928932 L15.2928932,3.29289322 C15.6834175,2.90236893 16.3165825,2.90236893 16.7071068,3.29289322 C17.0976311,3.68341751 17.0976311,4.31658249 16.7071068,4.70710678 L9.41421356,12 Z" transform="translate(12.000000, 12.000000) rotate(-180.000000) translate(-12.000000, -12.000000) "></path>
                    </g>
                </g>
            </g>
        </g>
    </g>
</svg>